<svg width="168" height="269" viewBox="0 0 168 269" fill="none" xmlns="http://www.w3.org/2000/svg"><path fill-rule="evenodd" clip-rule="evenodd" d="M60.3973 155.216L17.119 242.883L36.3872 252.395L55.9947 212.677V240.346H111.215V212.677L130.823 252.395L150.091 242.883L106.813 155.216H60.3973Z" fill="#3F85A7"/><rect x="38.6001" y="22.9874" width="50.7823" height="50.7823" rx="25.3911" transform="rotate(8.52399 38.6001 22.9874)" fill="#3F85A7"/><rect x="70.8881" y="7.29907" width="71.639" height="71.639" rx="35.8195" transform="rotate(8.52399 70.8881 7.29907)" fill="#3F85A7"/><rect x="26.2762" y="55.6713" width="115.126" height="101.935" rx="18.6667" fill="#3F85A7"/><rect x="131.809" y="88.0506" width="23.9846" height="23.9847" rx="11.9923" fill="#3F85A7"/><rect x="11.8853" y="88.0506" width="23.9846" height="23.9847" rx="11.9923" fill="#3F85A7"/><path d="M117.418 55.6713V55.6713C130.664 55.6713 141.402 66.4095 141.402 79.6559V88.0506H132.351C124.104 88.0506 117.418 81.3647 117.418 73.1172V55.6713Z" fill="#3F85A7"/><path d="M75.4448 55.6713H44.2647V55.6713C34.3299 55.6713 26.2762 63.725 26.2762 73.6598V88.0506H35.3276C43.575 88.0506 50.2609 81.3647 50.2609 73.1172V59.8686L51.5431 60.6576C59.5717 65.5983 70.0613 63.41 75.4448 55.6713V55.6713Z" fill="#3F85A7"/><path fill-rule="evenodd" clip-rule="evenodd" d="M126.798 56.1145C120.818 66.4751 108.924 72.6603 96.3773 70.7799C86.8012 69.3446 78.9658 63.5285 74.601 55.6713H122.736C124.131 55.6713 125.49 55.8243 126.798 56.1145Z" fill="#3F85A7"/><path fill-rule="evenodd" clip-rule="evenodd" d="M107.55 4.34886C105.133 3.98661 102.734 3.82758 100.37 3.85843C99.3061 3.87233 98.432 3.02076 98.4181 1.95641C98.4043 0.892064 99.2558 0.017975 100.32 0.00408132C102.891 -0.029478 105.498 0.143557 108.121 0.536764C110.933 0.958265 113.653 1.61607 116.264 2.48741C117.273 2.82446 117.819 3.91619 117.482 4.92586C117.145 5.93553 116.053 6.48079 115.043 6.14374C112.643 5.34269 110.141 4.73717 107.55 4.34886ZM94.7692 2.30405C94.9568 3.35183 94.2595 4.35332 93.2118 4.54095C88.4279 5.39762 83.871 7.03545 79.7009 9.33554C78.7688 9.84965 77.5965 9.51082 77.0824 8.57877C76.5683 7.64671 76.9071 6.47436 77.8392 5.96026C82.3714 3.46041 87.327 1.67878 92.5323 0.746628C93.5801 0.558997 94.5816 1.25628 94.7692 2.30405ZM121.329 6.5977C121.837 5.66251 123.007 5.3165 123.942 5.82487C128.913 8.527 133.314 12.0654 136.986 16.2241C137.691 17.0219 137.615 18.2399 136.818 18.9445C136.02 19.6491 134.802 19.5734 134.097 18.7756C130.718 14.9487 126.67 11.695 122.101 9.21152C121.166 8.70314 120.82 7.5329 121.329 6.5977ZM74.0271 10.6031C74.6849 11.44 74.5397 12.6516 73.7028 13.3094C71.8171 14.7915 70.0509 16.4266 68.4248 18.199C67.9687 18.6961 67.2859 18.9186 66.6244 18.7855C66.4394 18.7483 66.2538 18.7125 66.0676 18.6782C65.9728 18.6608 65.8809 18.6367 65.7923 18.6065C65.6987 18.6047 65.6041 18.5961 65.509 18.5803C65.3228 18.5492 65.136 18.5196 64.9487 18.4916C61.9578 18.0433 59.0026 18.0022 56.1382 18.3256C55.0805 18.445 54.1263 17.6844 54.0068 16.6267C53.8874 15.5689 54.6481 14.6147 55.7058 14.4953C58.9011 14.1345 62.1938 14.1809 65.5201 14.6794C65.7285 14.7107 65.9362 14.7436 66.1434 14.7782C66.2016 14.7879 66.2587 14.8001 66.3146 14.8147C67.8771 13.1857 69.5506 11.6702 71.3208 10.2788C72.1577 9.62103 73.3693 9.76622 74.0271 10.6031ZM48.6788 17.9552C49.0694 18.9453 48.5834 20.0647 47.5932 20.4553C42.0893 22.6266 37.2322 26.2176 33.5427 30.8431C32.8789 31.6752 31.6663 31.8117 30.8341 31.148C30.002 30.4842 29.8655 29.2715 30.5292 28.4394C34.6391 23.2868 40.0476 19.2883 46.1786 16.8696C47.1688 16.479 48.2881 16.965 48.6788 17.9552ZM139.312 22.3188C140.22 21.7625 141.406 22.0473 141.963 22.9548C144.862 27.6851 146.955 32.9298 148.081 38.4744C148.293 39.5176 147.619 40.5349 146.576 40.7468C145.532 40.9587 144.515 40.2848 144.303 39.2416C143.268 34.1456 141.344 29.322 138.676 24.9692C138.12 24.0617 138.405 22.875 139.312 22.3188ZM150.263 69.6845C151.297 69.4336 152.339 70.0688 152.59 71.1032C153.11 73.2469 153.439 75.4646 153.559 77.7369C153.562 77.7899 153.564 77.843 153.567 77.8961C156.169 79.0451 158.53 80.6386 160.552 82.5791C161.32 83.316 161.346 84.5361 160.609 85.3042C159.872 86.0723 158.652 86.0976 157.884 85.3607C155.921 83.478 153.584 81.986 150.997 81.0075C150.256 80.7272 149.762 80.0221 149.752 79.2299C149.75 79.0862 149.747 78.9427 149.743 78.7994C149.741 78.7266 149.744 78.6547 149.75 78.5838C149.739 78.5135 149.732 78.4418 149.729 78.3691C149.724 78.2256 149.717 78.0823 149.71 77.9391C149.603 75.9069 149.308 73.9256 148.844 72.0119C148.593 70.9775 149.228 69.9355 150.263 69.6845ZM163.536 89.5313C164.515 89.1133 165.647 89.568 166.065 90.5469C167.311 93.465 168 96.676 168 100.043C168 103.41 167.311 106.62 166.066 109.538C165.648 110.517 164.515 110.972 163.536 110.554C162.557 110.136 162.103 109.003 162.521 108.024C163.566 105.576 164.145 102.88 164.145 100.043C164.145 97.2058 163.566 94.509 162.52 92.0607C162.102 91.0818 162.557 89.9493 163.536 89.5313ZM18.6011 146.888C19.5579 146.422 20.7117 146.819 21.1782 147.776C23.3358 152.2 26.4746 156.061 30.3122 159.073C31.1495 159.73 31.2954 160.942 30.6382 161.779C29.981 162.617 28.7694 162.763 27.9321 162.105C23.6407 158.737 20.1291 154.419 17.7136 149.465C17.247 148.508 17.6444 147.355 18.6011 146.888ZM33.9702 163.834C34.4226 162.871 35.5704 162.456 36.5339 162.909C38.7195 163.935 41.0385 164.724 43.458 165.242C44.0392 165.366 44.5305 165.752 44.7894 166.287C45.0484 166.822 45.0459 167.446 44.7828 167.979L40.3714 176.915C39.9002 177.87 38.7444 178.262 37.79 177.79C36.8355 177.319 36.4437 176.163 36.9149 175.209L40.2688 168.415C38.4123 167.883 36.6168 167.206 34.8955 166.398C33.932 165.945 33.5177 164.798 33.9702 163.834ZM35.0849 183.27C36.0394 183.741 36.4311 184.897 35.96 185.851L27.1371 203.723C26.666 204.678 25.5102 205.07 24.5558 204.598C23.6013 204.127 23.2095 202.971 23.6807 202.017L32.5035 184.145C32.9747 183.191 34.1304 182.799 35.0849 183.27ZM132.16 183.338C133.114 182.867 134.27 183.259 134.741 184.214L143.554 202.066C144.025 203.02 143.634 204.176 142.679 204.647C141.725 205.119 140.569 204.727 140.098 203.772L131.285 185.92C130.813 184.965 131.205 183.81 132.16 183.338ZM21.8507 210.078C22.8052 210.549 23.1969 211.705 22.7257 212.659L13.9029 230.531C13.4317 231.486 12.276 231.878 11.3215 231.406C10.3671 230.935 9.9753 229.779 10.4465 228.825L19.2693 210.953C19.7405 209.998 20.8962 209.607 21.8507 210.078ZM145.379 210.117C146.334 209.646 147.49 210.038 147.961 210.992L156.774 228.845C157.245 229.799 156.853 230.955 155.899 231.426C154.944 231.897 153.789 231.505 153.317 230.551L144.504 212.698C144.033 211.744 144.425 210.588 145.379 210.117ZM8.61647 236.886C9.57094 237.357 9.96271 238.513 9.49152 239.467L5.93329 246.675L10.4888 248.924C11.4433 249.395 11.8351 250.551 11.3639 251.505C10.8927 252.46 9.73696 252.852 8.78249 252.38L2.49873 249.278C1.54427 248.807 1.15249 247.651 1.62368 246.697L6.03509 237.761C6.50628 236.806 7.662 236.415 8.61647 236.886ZM158.599 236.896C159.554 236.424 160.709 236.816 161.18 237.771L165.587 246.697C166.058 247.651 165.666 248.807 164.712 249.278L158.428 252.38C157.474 252.852 156.318 252.46 155.847 251.505C155.376 250.551 155.767 249.395 156.722 248.924L161.277 246.675L157.724 239.477C157.253 238.523 157.645 237.367 158.599 236.896ZM46.9964 249.772C47.3212 249.114 47.9911 248.698 48.7247 248.698H56.4759C57.5404 248.698 58.4033 249.561 58.4033 250.625C58.4033 251.69 57.5404 252.553 56.4759 252.553H49.9226L47.8961 256.658C47.4249 257.612 46.2692 258.004 45.3148 257.533C44.3603 257.062 43.9685 255.906 44.4397 254.951L46.9964 249.772ZM62.2998 250.625C62.2998 249.561 63.1627 248.698 64.2272 248.698H79.7297C80.7941 248.698 81.657 249.561 81.657 250.625C81.657 251.69 80.7941 252.553 79.7297 252.553H64.2272C63.1627 252.553 62.2998 251.69 62.2998 250.625ZM85.5536 250.625C85.5536 249.561 86.4165 248.698 87.481 248.698H102.983C104.048 248.698 104.911 249.561 104.911 250.625C104.911 251.69 104.048 252.553 102.983 252.553H87.481C86.4165 252.553 85.5536 251.69 85.5536 250.625ZM108.807 250.625C108.807 249.561 109.67 248.698 110.735 248.698H118.486C119.22 248.698 119.89 249.114 120.214 249.772L122.771 254.951C123.242 255.906 122.85 257.062 121.896 257.533C120.941 258.004 119.786 257.612 119.315 256.658L117.288 252.553H110.735C109.67 252.553 108.807 251.69 108.807 250.625ZM14.1912 252.901C14.6624 251.947 15.8181 251.555 16.7726 252.026L29.3401 258.23C30.2946 258.701 30.6863 259.857 30.2151 260.812C29.744 261.766 28.5882 262.158 27.6338 261.687L15.0662 255.482C14.1118 255.011 13.72 253.856 14.1912 252.901ZM153.019 252.901C153.491 253.856 153.099 255.011 152.144 255.482L139.577 261.687C138.622 262.158 137.467 261.766 136.996 260.812C136.524 259.857 136.916 258.701 137.871 258.23L150.438 252.026C151.393 251.555 152.548 251.947 153.019 252.901ZM44.4643 259.255C45.4188 259.727 45.8106 260.882 45.3394 261.837L42.7827 267.016C42.5564 267.474 42.1573 267.824 41.6732 267.988C41.1891 268.152 40.6596 268.117 40.2013 267.891L33.9175 264.789C32.963 264.318 32.5713 263.162 33.0425 262.207C33.5137 261.253 34.6694 260.861 35.6238 261.332L40.1794 263.581L41.883 260.13C42.3541 259.176 43.5099 258.784 44.4643 259.255ZM122.746 259.255C123.701 258.784 124.857 259.176 125.328 260.13L127.031 263.581L131.587 261.332C132.541 260.861 133.697 261.253 134.168 262.207C134.639 263.162 134.248 264.318 133.293 264.789L127.009 267.891C126.551 268.117 126.022 268.152 125.537 267.988C125.053 267.824 124.654 267.474 124.428 267.016L121.871 261.837C121.4 260.882 121.792 259.727 122.746 259.255Z" fill="#49C0F8"/><path fill-rule="evenodd" clip-rule="evenodd" d="M28.6433 35.2577C29.5237 35.8561 29.7523 37.0548 29.1539 37.9351C28.2912 39.2045 27.482 41.6119 26.8971 44.5374C26.3256 47.3955 26.0191 50.4809 26.019 52.913C26.019 53.9774 25.1561 54.8403 24.0916 54.8402C23.0272 54.8402 22.1643 53.9773 22.1644 52.9128C22.1645 50.2053 22.5004 46.8663 23.1172 43.7817C23.7205 40.7646 24.6453 37.7112 25.9659 35.7683C26.5643 34.888 27.763 34.6594 28.6433 35.2577Z" fill="#49C0F8"/><path fill-rule="evenodd" clip-rule="evenodd" d="M20.5029 58.3325C21.4128 58.8848 21.7026 60.0702 21.1503 60.9801C18.3107 65.6578 17.6911 71.6188 18.2036 75.8071C18.3329 76.8636 17.5812 77.8249 16.5246 77.9542C15.468 78.0835 14.5067 77.3318 14.3775 76.2752C13.7894 71.4692 14.4548 64.5813 17.8552 58.9798C18.4076 58.0699 19.593 57.7801 20.5029 58.3325Z" fill="#49C0F8"/><path fill-rule="evenodd" clip-rule="evenodd" d="M12.1057 81.2614C12.7706 82.0926 12.6359 83.3054 11.8047 83.9704C8.87714 86.3124 5.00924 91.0672 3.82392 97.5864C3.63351 98.6337 2.63017 99.3283 1.5829 99.1379C0.53563 98.9475 -0.15899 97.9441 0.0314223 96.8969C1.41589 89.2823 5.89979 83.7579 9.39669 80.9604C10.2279 80.2954 11.4407 80.4302 12.1057 81.2614Z" fill="#49C0F8"/><path fill-rule="evenodd" clip-rule="evenodd" d="M1.93201 103.05C2.98197 102.875 3.97499 103.584 4.14998 104.634C4.41017 106.196 5.54297 108.982 7.44568 111.722C9.34249 114.453 11.8051 116.849 14.5287 117.938C15.517 118.333 15.9977 119.455 15.6024 120.443C15.2071 121.432 14.0854 121.912 13.0971 121.517C9.39623 120.037 6.39805 116.971 4.27957 113.921C2.16699 110.878 0.730008 107.562 0.347752 105.268C0.17276 104.218 0.882058 103.225 1.93201 103.05Z" fill="#49C0F8"/><path fill-rule="evenodd" clip-rule="evenodd" d="M16.6553 124.244C17.709 124.394 18.4412 125.371 18.2906 126.425C17.9912 128.52 17.8935 131.509 18.0032 134.362C18.1152 137.274 18.4339 139.751 18.8459 140.939C19.1945 141.945 18.6618 143.043 17.6561 143.392C16.6504 143.74 15.5525 143.208 15.2038 142.202C14.5878 140.425 14.2641 137.441 14.1514 134.51C14.0363 131.518 14.1315 128.281 14.4747 125.879C14.6253 124.826 15.6016 124.093 16.6553 124.244Z" fill="#49C0F8"/><path fill-rule="evenodd" clip-rule="evenodd" d="M147.442 45.2034C148.506 45.2034 149.369 46.0663 149.369 47.1307V48.1472C149.369 51.9209 148.818 55.6743 147.734 59.2889C147.647 59.5778 147.683 59.8897 147.832 60.1516L149.757 63.5205C150.286 64.4447 149.964 65.6221 149.04 66.1502C148.116 66.6783 146.939 66.3572 146.411 65.433L144.485 62.0641C143.812 60.8852 143.651 59.4817 144.042 58.1812C145.018 54.926 145.514 51.5457 145.514 48.1472V47.1307C145.514 46.0663 146.377 45.2034 147.442 45.2034Z" fill="#49C0F8"/><path fill-rule="evenodd" clip-rule="evenodd" d="M160.852 114.368C161.683 115.033 161.818 116.245 161.153 117.077C159.887 118.659 158.009 120.08 156.392 121.084C155.568 121.595 154.763 122.029 154.069 122.342C154.001 122.373 153.933 122.403 153.866 122.432V129.364C153.866 130.428 153.003 131.291 151.938 131.291C150.874 131.291 150.011 130.428 150.011 129.364V121.012C150.011 119.991 150.806 119.155 151.811 119.089C151.829 119.084 151.855 119.077 151.889 119.066C152.025 119.022 152.224 118.946 152.482 118.829C152.996 118.597 153.652 118.248 154.359 117.809C155.804 116.912 157.267 115.763 158.143 114.669C158.808 113.837 160.021 113.703 160.852 114.368ZM151.778 119.097C151.778 119.097 151.779 119.097 151.78 119.096Z" fill="#49C0F8"/><path fill-rule="evenodd" clip-rule="evenodd" d="M151.296 135.146C152.36 135.146 153.223 136.009 153.223 137.073C153.223 138.901 152.909 141.862 151.99 145.024C151.074 148.179 149.513 151.683 146.921 154.451C146.194 155.229 144.974 155.269 144.197 154.541C143.42 153.814 143.38 152.594 144.107 151.817C146.141 149.644 147.471 146.764 148.289 143.948C149.105 141.139 149.369 138.54 149.369 137.073C149.369 136.009 150.232 135.146 151.296 135.146Z" fill="#49C0F8"/><path fill-rule="evenodd" clip-rule="evenodd" d="M142.454 157.633C143.163 158.427 143.094 159.645 142.3 160.354C140.751 161.738 138.183 163.854 135.182 165.693C132.944 167.065 130.355 168.353 127.698 169.014L129.938 174.215C130.359 175.193 129.908 176.327 128.93 176.748C127.953 177.169 126.819 176.718 126.398 175.74L123.186 168.283C122.939 167.711 122.984 167.055 123.307 166.522C123.63 165.989 124.191 165.645 124.813 165.599C127.441 165.403 130.392 164.108 133.167 162.407C135.906 160.728 138.285 158.772 139.733 157.479C140.527 156.77 141.746 156.839 142.454 157.633Z" fill="#49C0F8"/><path d="M80.627 87.6049C80.627 85.8308 82.0651 84.3926 83.8392 84.3926V84.3926C85.6132 84.3926 87.0514 85.8308 87.0514 87.6049V110.733C87.0514 112.507 85.6132 113.945 83.8392 113.945V113.945C82.0651 113.945 80.627 112.507 80.627 110.733V87.6049Z" fill="#202F36"/><path d="M72.2752 102.381C70.5012 102.381 69.063 100.943 69.063 99.1689V99.1689C69.063 97.3948 70.5012 95.9566 72.2752 95.9566L95.4033 95.9566C97.1773 95.9566 98.6155 97.3948 98.6155 99.1689V99.1689C98.6155 100.943 97.1773 102.381 95.4033 102.381L72.2752 102.381Z" fill="#202F36"/></svg>